<svg width="38" height="37" viewBox="0 0 38 37" fill="none" xmlns="http://www.w3.org/2000/svg">
<path d="M2.49998 20.9102L-1.82216e-05 20.9101L1.80884e-05 15.9101L2.50002 15.9102L2.5 18.4102L2.49998 20.9102ZM36.7678 16.6424C37.7441 17.6187 37.7441 19.2016 36.7678 20.1779L20.858 36.0879C19.8817 37.0642 18.2988 37.0642 17.3224 36.0879C16.3461 35.1116 16.3461 33.5287 17.3224 32.5524L31.4645 18.4102L17.3222 4.26814C16.3459 3.29183 16.3459 1.70892 17.3222 0.732603C18.2985 -0.243713 19.8814 -0.243723 20.8577 0.73258L36.7678 16.6424ZM18.0001 18.4103L18.0001 20.9103L18.0001 20.9103L18.0001 18.4103ZM2.5 18.4102L2.50002 15.9102L18.0001 15.9103L18.0001 18.4103L18.0001 20.9103L2.49998 20.9102L2.5 18.4102ZM18.0001 18.4103L18.0001 15.9103L35 15.9102L35 18.4102L35 20.9102L18.0001 20.9103L18.0001 18.4103Z" fill="black"/>
</svg>
